<?xml version="1.0" standalone="no"?>
<!DOCTYPE svg PUBLIC "-//W3C//DTD SVG 20010904//EN"
 "http://www.w3.org/TR/2001/REC-SVG-20010904/DTD/svg10.dtd">
<svg version="1.0" xmlns="http://www.w3.org/2000/svg"
 width="16.000000pt" height="16.000000pt" viewBox="0 0 16.000000 16.000000"
 preserveAspectRatio="xMidYMid meet">
<metadata>
Created by potrace 1.11, written by Peter Selinger 2001-2013
</metadata>
<g transform="translate(0.000000,16.000000) scale(0.002286,-0.002286)"
fill="#000000" stroke="none">
<path d="M2718 5375 c-2 -2 -29 -6 -60 -9 -128 -15 -262 -60 -398 -133 -319
-172 -549 -505 -599 -868 -5 -38 -9 -119 -8 -178 l2 -108 -50 7 c-64 9 -225
10 -293 1 -315 -41 -609 -251 -752 -537 -73 -146 -103 -273 -104 -430 -1 -188
23 -296 99 -455 140 -293 425 -498 765 -551 25 -4 691 -8 1480 -8 1606 -2
1568 -3 1755 68 327 125 570 425 625 773 11 65 14 237 6 278 -2 11 -7 40 -11
65 -12 72 -60 204 -104 286 -99 183 -248 325 -439 418 -54 27 -124 55 -152 61
-3 1 -23 7 -45 13 -87 25 -269 33 -390 18 l-61 -7 2 108 c2 95 -5 182 -20 248
-38 176 -84 284 -182 430 -211 315 -553 500 -941 510 -67 1 -123 1 -125 0z
m235 -417 c244 -45 458 -212 557 -433 57 -128 65 -170 65 -320 -1 -94 -5 -146
-18 -187 -20 -65 -65 -165 -102 -224 l-26 -42 63 -52 c35 -28 73 -60 85 -71
13 -10 55 -46 95 -79 l71 -60 26 22 c14 13 32 29 40 37 44 40 163 103 226 118
107 26 227 25 319 -1 157 -46 293 -160 365 -306 110 -224 77 -470 -89 -652
-88 -96 -173 -145 -315 -179 -74 -18 -2857 -20 -2970 -2 -268 41 -472 275
-481 550 -9 292 172 526 466 599 70 17 217 11 290 -11 76 -23 176 -80 232
-133 26 -24 51 -42 56 -40 10 3 80 58 118 93 12 11 58 49 103 85 44 36 80 70
81 77 0 7 -12 29 -26 50 -41 60 -70 122 -95 203 -33 108 -33 300 0 417 41 145
146 301 263 390 101 77 239 138 338 150 25 3 47 7 50 10 8 7 158 1 213 -9z"/>
<path d="M4023 4977 c18 -29 50 -90 72 -135 33 -70 43 -82 65 -83 33 -1 2439
-1 2465 0 19 1 20 8 20 136 l0 135 -1327 0 -1327 0 32 -53z"/>
<path d="M5150 3928 c0 -6 11 -24 25 -40 14 -17 50 -72 81 -124 30 -51 62 -95
72 -97 15 -4 1280 -2 1307 2 6 0 10 52 10 131 0 108 -2 131 -15 134 -35 9
-1480 3 -1480 -6z"/>
<path d="M5389 2805 c-8 -32 -46 -131 -86 -223 -4 -10 130 -12 668 -10 l674 3
0 128 c0 75 -4 131 -10 135 -5 3 -286 6 -623 7 l-613 0 -10 -40z"/>
</g>
</svg>
